<svg id="Layer_1" height="512" viewBox="0 0 128 128" width="512" xmlns="http://www.w3.org/2000/svg" data-name="Layer 1"><path d="m106.761 112.747-21.929-52.9h-39.827l-23.766 52.9h33.011v-5a9.75 9.75 0 0 1 19.5 0v5z" fill="#fcbe00"/><path d="m112.75 109.12v3.63h-33.25v-3.63a16.625 16.625 0 0 1 33.25 0z" fill="#ffd300"/><path d="m64 60.5a15.726 15.726 0 0 1 -15.631-14l-2.452-22.167a48.116 48.116 0 0 1 36.166 0l-2.452 22.167a15.726 15.726 0 0 1 -15.631 14z" fill="#fcbe00"/><path d="m46.646 30.923 1.723 15.577a15.726 15.726 0 0 0 15.631 14 15.726 15.726 0 0 0 15.631-14l1.723-15.579a48.1 48.1 0 0 0 -34.708.002z" fill="#ffd300"/><path d="m88.081 94.064-47.706-.001 5.542-13.733h36.166z" fill="#ffd300"/><path d="m98.11 62.04-16.03 18.29-12.41-18.74-1.16-1.75v-.01a15.433 15.433 0 0 0 3.83-1.74 15.668 15.668 0 0 0 7.29-11.59l2.45-22.17 10.98 17.22 2.24 3.5 3.67 5.76a9.387 9.387 0 0 1 -.86 11.23z" fill="#39a9ff"/><path d="m59.49 59.83v.01l-1.16 1.75-12.41 18.74-16.03-18.29a9.387 9.387 0 0 1 -.86-11.23l3.67-5.76 2.24-3.5 10.98-17.22 2.45 22.17a15.668 15.668 0 0 0 7.29 11.59 15.433 15.433 0 0 0 3.83 1.74z" fill="#39a9ff"/><path d="m95.3 45.05h-7.91a1.75 1.75 0 0 1 0-3.5h5.67z" fill="#ffd300"/><path d="m84.76 59.84a1.746 1.746 0 0 1 -1.75 1.75h-13.34l-1.16-1.75v-.01a15.433 15.433 0 0 0 3.83-1.74h10.67a1.752 1.752 0 0 1 1.75 1.75z" fill="#ffd300"/><path d="m42.38 43.3a1.761 1.761 0 0 1 -1.76 1.75h-7.92l2.24-3.5h5.68a1.754 1.754 0 0 1 1.76 1.75z" fill="#ffd300"/><path d="m59.49 59.83v.01l-1.16 1.75h-13.33a1.75 1.75 0 0 1 0-3.5h10.66a15.433 15.433 0 0 0 3.83 1.74z" fill="#ffd300"/><path d="m48.96 109.12v3.63h-33.25v-3.63a16.625 16.625 0 0 1 33.25 0z" fill="#ffd300"/><g fill="#dc3400"><path d="m27.04 103.17v9.58h-3.5v-9.58a1.75 1.75 0 0 1 3.5 0z"/><path d="m34.08 103.17v9.58h-3.5v-9.58a1.75 1.75 0 0 1 3.5 0z"/><path d="m41.12 103.17v9.58h-3.5v-9.58a1.75 1.75 0 1 1 3.5 0z"/><path d="m90.83 103.17v9.58h-3.5v-9.58a1.75 1.75 0 0 1 3.5 0z"/><path d="m97.87 103.17v9.58h-3.5v-9.58a1.75 1.75 0 0 1 3.5 0z"/><path d="m104.91 103.17v9.58h-3.5v-9.58a1.75 1.75 0 1 1 3.5 0z"/></g><path d="m64 15.253 6.217 5.685-6.217 13.979-6.389-13.876z" fill="#bae643"/><path d="m68.507 71.083h-9.014v-16.7a6.75 6.75 0 0 1 9.014 0z" fill="#fff1b3"/><path d="m46.2 42.78a1.75 1.75 0 0 0 1.738 1.556 1.846 1.846 0 0 0 .2-.01 1.751 1.751 0 0 0 1.546-1.933l-.073-.655a1.75 1.75 0 1 0 -3.478.387z" fill="#370001"/><path d="m96.123 90.75a18.25 18.25 0 0 0 -6.206 1.1l-5.736-11.259 5-5.7 5.319 12.857a1.75 1.75 0 0 0 3.233-1.34l-5.989-14.45 7.682-8.758a11.191 11.191 0 0 0 1.015-13.324l-4.727-7.414a1.68 1.68 0 0 0 -.133-.209l-6.715-10.536a1.75 1.75 0 1 0 -2.951 1.883l5.068 7.949h-3.594a1.75 1.75 0 0 0 0 3.5h5.826l4.275 6.706a7.675 7.675 0 0 1 -.7 9.137l-14.513 16.562-5.977-9.016a1.75 1.75 0 1 0 -2.917 1.933l5.44 8.209h-25.448a1.75 1.75 0 1 0 0 3.5h27.636l5.741 11.268a18.364 18.364 0 0 0 -9 15.777v1.875h-2.252v-3.25a11.5 11.5 0 0 0 -23 0v3.25h-1.792v-1.873a18.309 18.309 0 0 0 -5.745-13.312h27.162a1.75 1.75 0 0 0 0-3.5h-29.978l5.3-11.118 10.3-15.543v5.431a1.75 1.75 0 0 0 1.75 1.75h9.014a1.75 1.75 0 0 0 1.75-1.75v-9.49h12.748a1.75 1.75 0 0 0 0-3.5h-7.7a17.446 17.446 0 0 0 6.061-11.4l2.452-22.168a1.75 1.75 0 0 0 -1.082-1.814 49.879 49.879 0 0 0 -11.3-3.078l-6.267-5.678a1.748 1.748 0 0 0 -2.35 0l-6.389 5.789a1.749 1.749 0 0 0 -.414 2.028l2.08 4.518a49.732 49.732 0 0 0 -9.961 2.238l-.339-3.053c1.435-.535 2.9-1 4.373-1.388a1.75 1.75 0 1 0 -.893-3.385 50.126 50.126 0 0 0 -6.025 2.008 1.725 1.725 0 0 0 -.688.537.622.622 0 0 0 -.13.144l-16.878 26.481a11.19 11.19 0 0 0 1.015 13.326l15.267 17.42-5.341 11.216a18.253 18.253 0 0 0 -5.473-1.051l5.191-11.557a1.75 1.75 0 0 0 -3.192-1.435l-5.962 13.265a18.4 18.4 0 0 0 -15.106 18.067v3.623a1.751 1.751 0 0 0 1.75 1.75h38.542a1.751 1.751 0 0 0 1.75-1.75v-5a8 8 0 0 1 16 0v5a1.751 1.751 0 0 0 1.75 1.75h39a1.751 1.751 0 0 0 1.75-1.75v-3.623a18.4 18.4 0 0 0 -18.377-18.375zm-29.366-21.417h-5.514v-14.1a4.993 4.993 0 0 1 5.514 0zm-2.757-51.719 4.262 3.862-4.262 9.256-4.262-9.256zm-33.49 34.141 4.275-6.707h5.84a1.75 1.75 0 0 0 0-3.5h-3.608l7.706-12.087.743 6.717a1.75 1.75 0 0 0 1.734 1.558 1.817 1.817 0 0 0 .194-.011 1.75 1.75 0 0 0 1.547-1.932l-.409-3.7a46.241 46.241 0 0 1 11.11-2.45l2.765 6a1.748 1.748 0 0 0 3.178 0l2.763-6a46.594 46.594 0 0 1 6.532 1.081 1.727 1.727 0 0 0 .413.05 1.751 1.751 0 0 0 .41-3.452 49.916 49.916 0 0 0 -5.803-1.031l1.442-3.132a46.345 46.345 0 0 1 8.858 2.318l-2.3 20.833a13.944 13.944 0 0 1 -7.635 10.957v-2.884a1.749 1.749 0 0 0 -.582-1.3 8.487 8.487 0 0 0 -11.35 0 1.749 1.749 0 0 0 -.582 1.3v2.882a14.019 14.019 0 0 1 -7.313-9.138 1.75 1.75 0 0 0 -3.4.837 17.484 17.484 0 0 0 5.674 9.129h-7.7a1.75 1.75 0 0 0 0 3.5h11.222l-10.511 15.861-14.517-16.563a7.674 7.674 0 0 1 -.696-9.136zm-13.052 57.37a14.875 14.875 0 0 1 29.75 0v1.875h-6.083v-7.831a1.75 1.75 0 0 0 -3.5 0v7.831h-3.542v-7.831a1.75 1.75 0 0 0 -3.5 0v7.831h-3.541v-7.831a1.75 1.75 0 0 0 -3.5 0v7.831h-6.084zm93.542 1.875h-6.084v-7.831a1.75 1.75 0 0 0 -3.5 0v7.831h-3.543v-7.831a1.75 1.75 0 0 0 -3.5 0v7.831h-3.542v-7.831a1.75 1.75 0 0 0 -3.5 0v7.831h-6.083v-1.873a14.875 14.875 0 0 1 29.75 0z" fill="#370001"/><path d="m78.333 95.814a1.75 1.75 0 0 0 0-3.5h-.583a1.75 1.75 0 0 0 0 3.5z" fill="#370001"/></svg>